<svg width="40" height="40" viewBox="0 0 40 40" fill="none" xmlns="http://www.w3.org/2000/svg">
<rect opacity="0.12" width="40" height="40" rx="20" fill="url(#paint0_linear)"/>
<mask id="mask0" style="mask-type:alpha" maskUnits="userSpaceOnUse" x="11" y="11" width="18" height="18">
<path d="M17.5 11C19.2239 11 20.8772 11.6848 22.0962 12.9038C23.3152 14.1228 24 15.7761 24 17.5C24 19.11 23.41 20.59 22.44 21.73L22.71 22H23.5L28.5 27L27 28.5L22 23.5V22.71L21.73 22.44C20.59 23.41 19.11 24 17.5 24C15.7761 24 14.1228 23.3152 12.9038 22.0962C11.6848 20.8772 11 19.2239 11 17.5C11 15.7761 11.6848 14.1228 12.9038 12.9038C14.1228 11.6848 15.7761 11 17.5 11ZM17.5 13C15 13 13 15 13 17.5C13 20 15 22 17.5 22C20 22 22 20 22 17.5C22 15 20 13 17.5 13Z" fill="#5F5F5F"/>
</mask>
<g mask="url(#mask0)">
<rect width="40" height="40" fill="url(#paint1_linear)"/>
</g>
<defs>
<linearGradient id="paint0_linear" x1="40" y1="20" x2="0" y2="20" gradientUnits="userSpaceOnUse">
<stop stop-color="#1DDE7D"/>
<stop offset="1" stop-color="#72DFC5"/>
</linearGradient>
<linearGradient id="paint1_linear" x1="40" y1="20" x2="0" y2="20" gradientUnits="userSpaceOnUse">
<stop stop-color="#1DDE7D"/>
<stop offset="1" stop-color="#72DFC5"/>
</linearGradient>
</defs>
</svg>
